<svg height="481pt" viewBox="0 -48 481.21136 481" width="481pt" xmlns="http://www.w3.org/2000/svg"><path d="m313.210938 40.105469h112c8.835937 0 16 7.164062 16 16v16c0 8.835937-7.164063 16-16 16h-112c-8.835938 0-16-7.164063-16-16v-16c0-8.835938 7.164062-16 16-16zm0 0" fill="#78b9eb"/><path d="m353.210938 136.105469h32v32h-32zm0 0" fill="#78b9eb"/><path d="m129.210938 104.105469c-22.089844 0-40 17.910156-40 40 0 22.089843 17.910156 40 40 40 6.421874-.039063 12.734374-1.640625 18.402343-4.664063l-23.84375-23.816406c-2.261719-2.238281-3.539062-5.292969-3.539062-8.480469 0-3.183593 1.277343-6.238281 3.539062-8.480469 2.226563-2.289062 5.292969-3.558593 8.480469-3.519531 3.1875-.011719 6.242188 1.257813 8.480469 3.519531l23.816406 23.839844c3.023437-5.664062 4.625-11.976562 4.664063-18.398437 0-22.089844-17.90625-40-40-40zm0 0" fill="#78b9eb"/><g fill="#1a6fb0"><path d="m409.210938 56.105469h16v16h-16zm0 0"/><path d="m313.210938 56.105469h16v16h-16zm0 0"/><path d="m361.210938 56.105469h16v16h-16zm0 0"/><path d="m385.210938 56.105469h16v16h-16zm0 0"/><path d="m337.210938 56.105469h16v16h-16zm0 0"/><path d="m441.210938 160.105469h-48v-16c22.082031-.027344 39.972656-17.917969 40-40v-9.472657c9.554687-3.378906 15.957031-12.394531 16-22.527343v-16c-.035157-10.394531-6.773438-19.582031-16.679688-22.734375-3.277344-19.175782-19.867188-33.210938-39.320312-33.265625h-48c-19.449219.054687-36.042969 14.089843-39.320313 33.265625-9.90625 3.152344-16.644531 12.339844-16.679687 22.734375v16c.042968 10.132812 6.445312 19.148437 16 22.527343v9.472657c.027343 22.082031 17.921874 39.972656 40 40v16h-48c-22.078126.027343-39.972657 17.917969-40 40v23.382812l-21.457032-8.582031c36.328125-54.359375 26.140625-127.316406-23.691406-169.640625-49.828125-42.324219-123.472656-40.574219-171.238281 4.070313-47.761719 44.644531-54.472657 118.003906-15.605469 170.574218 38.871094 52.570313 110.972656 67.65625 167.65625 35.074219l64.335938 25.738281v95.382813c0 4.417969 3.582031 8 8 8h208c4.417968 0 8-3.582031 8-8v-176c-.027344-22.082031-17.917969-39.972657-40-40zm-96-144h48c10.167968.011719 19.230468 6.417969 22.632812 16h-93.265625c3.402344-9.582031 12.464844-15.988281 22.632813-16zm-40 40c0-4.417969 3.582031-8 8-8h112c4.417968 0 8 3.582031 8 8v16c0 4.417969-3.582032 8-8 8h-112c-4.417969 0-8-3.582031-8-8zm16 48v-8h96v8c0 13.253906-10.746094 24-24 24h-48c-13.253907 0-24-10.746094-24-24zm40 40h16v16h-16zm-169.785157 93.0625-11.246093-4.496094c-.945313-.375-1.953126-.566406-2.96875-.566406-2.296876-.011719-4.566407-.519531-6.648438-1.496094 14.710938-7.058594 27.390625-17.734375 36.855469-31.023437 1.125 2.703124 1.734375 5.59375 1.792969 8.519531v8c.007812 1.648437.523437 3.257812 1.480468 4.601562-5.78125 6.195313-12.242187 11.71875-19.265625 16.460938zm-70.214843-37.0625v23.59375c-37.828126-3.851563-67.738282-33.765625-71.589844-71.59375h23.589844v-16h-23.589844c3.851562-37.828125 33.761718-67.738281 71.589844-71.589844v23.589844h16v-23.589844c37.828124 3.851563 67.742187 33.761719 71.59375 71.589844h-23.59375v16h23.59375c-.726563 7.082031-2.40625 14.039062-4.992188 20.671875-6.792969-3.609375-14.488281-5.175782-22.152344-4.503906l-7.496094-7.488282c7.941407-21.242187 0-45.144531-19.070312-57.414062-19.070312-12.269532-44.117188-9.585938-60.15625 6.445312-16.039062 16.035156-18.730469 41.078125-6.464844 60.15625 12.265625 19.074219 36.167969 27.019532 57.410156 19.085938l2.808594 2.800781c-2.285156 5.109375-3.472656 10.644531-3.480468 16.246094v8c0 2.09375.203124 4.183593.609374 6.238281-2.84375.613281-5.714843 1.0625-8.609374 1.355469v-23.59375zm27.519531-30.832031-19.304688-19.304688c-.765625-.757812-1.195312-1.792969-1.191406-2.871094.019531-1.09375.484375-2.132812 1.289063-2.871094.714843-.730468 1.707031-1.121093 2.726562-1.082031 1.0625-.011719 2.085938.414063 2.824219 1.175781l19.3125 19.304688c-1.640625 2.113281-3.539063 4.011719-5.65625 5.648438zm-2.351563-36.28125c-7.917968-7.476563-20.296875-7.476563-28.214844 0-3.785156 3.738281-5.921874 8.832031-5.929687 14.152343-.011719 5.316407 2.109375 10.421875 5.882813 14.167969l14.476562 14.480469c-1.121094.164062-2.25.269531-3.382812.3125-17.671876 0-32-14.328125-32-32s14.328124-32 32-32c17.671874 0 32 14.328125 32 32-.054688 1.132812-.167969 2.261719-.34375 3.382812zm14.832032 83.113281v-8c.019531-4.390625 1.242187-8.6875 3.535156-12.433594 2.691406-3.171875 2.5-7.878906-.4375-10.820313l-4.128906-4.128906c2.03125-1.730468 3.921874-3.617187 5.648437-5.648437l7.40625 7.40625c1.953125 1.953125 4.773437 2.761719 7.464844 2.136719 5.417969-1.144532 11.066406-.273438 15.886719 2.449218-8.519532 13.332032-20.78125 23.859375-35.253907 30.253906-.03125-.414062-.121093-.796874-.121093-1.214843zm-144-72c-.125-47.472657 29.6875-89.867188 74.40625-105.800781 44.71875-15.933594 94.625-1.945313 124.546874 34.910156 29.917969 36.855468 33.355469 88.570312 8.574219 129.058594-.734375-4.96875-2.390625-9.753907-4.886719-14.113282-.953124-1.632812-2.023437-3.199218-3.199218-4.679687 18.71875-41.125 6.449218-89.734375-29.546875-117.050781-35.996094-27.320313-86.113281-26.054688-120.6875 3.039062s-44.378907 78.261719-23.613281 118.394531c20.765624 40.132813 66.566406 60.523438 110.285156 49.105469 4.890625 5.640625 11.601562 9.382812 18.96875 10.578125-34.550782 14.339844-73.980469 10.472656-105.089844-10.304687-31.105469-20.78125-49.777344-55.726563-49.757812-93.136719zm191.632812 100c6.050781-4.820313 11.65625-10.175781 16.742188-16l31.625 12.617187v22.765625zm256.367188 124h-192v-168c0-13.253907 10.746093-24 24-24h144c13.253906 0 24 10.746093 24 24zm0 0"/><path d="m441.210938 344.105469h16v16h-16zm0 0"/><path d="m417.210938 344.105469h16v16h-16zm0 0"/><path d="m441.210938 320.105469h16v16h-16zm0 0"/></g></svg>